PathFileType	4	(X/Y/Z)	 s02c0102.trc
DataRate	CameraRate	NumFrames	NumMarkers	Units	OrigDataRate	OrigDataStartFrame	OrigNumFrames
200	200	5	51	mm	200	1	2000
Frame#	Time	racr			lacr			c7			jug			rlel			rdr			llel			ldr			s2			lic			ric			lasi			rasi			rpsi			lpsi			rgt			lgt			rth1			rth2			rth3			rth4			rlfc			rmfc			rsh1			rsh2			rsh3			rsh4			rlmal			rmmal			rcal			rtoe			rmt5			rmt1			lth1			lth2			lth4			lth3			llfc			lmfc			lsh1			lsh2			lsh3			lsh4			llmal			lmmal			lcal			ltoe			lmt5			SBIKE			LBIKE			RBIKE			
		X1	Y1	Z1	X2	Y2	Z2	X3	Y3	Z3	X4	Y4	Z4	X5	Y5	Z5	X6	Y6	Z6	X7	Y7	Z7	X8	Y8	Z8	X9	Y9	Z9	X10	Y10	Z10	X11	Y11	Z11	X12	Y12	Z12	X13	Y13	Z13	X14	Y14	Z14	X15	Y15	Z15	X16	Y16	Z16	X17	Y17	Z17	X18	Y18	Z18	X19	Y19	Z19	X20	Y20	Z20	X21	Y21	Z21	X22	Y22	Z22	X23	Y23	Z23	X24	Y24	Z24	X25	Y25	Z25	X26	Y26	Z26	X27	Y27	Z27	X28	Y28	Z28	X29	Y29	Z29	X30	Y30	Z30	X31	Y31	Z31	X32	Y32	Z32	X33	Y33	Z33	X34	Y34	Z34	X35	Y35	Z35	X36	Y36	Z36	X37	Y37	Z37	X38	Y38	Z38	X39	Y39	Z39	X40	Y40	Z40	X41	Y41	Z41	X42	Y42	Z42	X43	Y43	Z43	X44	Y44	Z44	X45	Y45	Z45	X46	Y46	Z46	X47	Y47	Z47	X48	Y48	Z48	X49	Y49	Z49	X50	Y50	Z50	X51	Y51	Z51	
1	0.0050	504.642072	1253.096847	-111.110365	508.639705	1255.823264	-478.414892	541.220695	1290.345136	-296.701631	472.876414	1170.651609	-293.552160	566.703539	993.742914	-71.592882	727.134340	846.305919	-122.281808	535.156091	987.639108	-539.413505	714.032930	843.200062	-480.746996	13.445093	1111.125733	-310.560451	158.758878	1102.710540	-448.846761	143.720985	1105.291928	-168.233834	199.075277	1062.144067	-427.098837	199.882279	1079.452611	-196.382381	43.031118	1154.352016	-268.170959	54.223843	1166.848658	-350.573960	115.062488	1036.524158	-122.561805	91.574876	1014.401889	-488.653102	198.355347	1016.200680	-125.850823	284.788401	1010.390871	-137.507970	359.347398	972.833752	-114.918036	292.528637	1032.908231	-166.949095	483.403955	891.458528	-148.797938	476.381040	869.880961	-260.767929	464.187428	781.645877	-130.090204	445.999702	696.654853	-147.362283	392.330619	627.527645	-140.032277	458.089931	691.351453	-184.659144	333.604265	523.727342	-142.986294	339.075603	543.481095	-223.593793	254.339191	480.526604	-182.500099	538.060176	449.942929	-191.027088	431.427432	441.329456	-128.725000	454.380073	453.717493	-237.365290	192.116132	908.204200	-504.918604	257.035694	851.242542	-501.488787	284.432194	868.723504	-484.071402	283.892919	765.910879	-501.329651	334.518479	678.860316	-476.861151	334.903188	649.527649	-375.372982	289.310904	585.192699	-498.537782	260.571953	505.093746	-482.017750	193.656028	444.936596	-487.630818	276.549336	497.806203	-445.779018	121.549576	369.181111	-473.039331	137.161422	358.607393	-396.488887	42.703718	358.587620	-434.562416	271.660170	185.649515	-437.624980	172.059957	226.505932	-498.531570	-162.903220	860.345840	-309.785503	37.499353	86.519709	-514.376007	34.486966	82.530352	-114.125883	
2	0.0100	504.651468	1253.070742	-111.092478	508.625570	1255.818286	-478.421293	541.213791	1290.370509	-296.721020	472.860157	1170.679616	-293.576250	566.703216	993.725657	-71.570171	727.134851	846.296383	-122.305120	535.126844	987.630346	-539.322319	714.021569	843.215008	-480.736703	13.468503	1111.134135	-310.547758	158.776763	1102.709011	-448.849087	143.765592	1105.305872	-168.251822	199.077375	1062.119552	-427.113985	199.921007	1079.460857	-196.422897	43.085927	1154.339213	-268.187070	54.260414	1166.821511	-350.580555	115.142779	1036.495141	-122.594870	91.586631	1014.411978	-488.678785	198.413380	1016.152070	-125.857906	284.819429	1010.314043	-137.462711	359.369485	972.770898	-114.894440	292.560615	1032.847941	-166.911370	483.412284	891.395183	-148.774521	476.405117	869.825133	-260.805167	464.198450	781.612315	-130.092258	445.985624	696.595796	-147.385489	392.289145	627.476332	-140.039201	458.050560	691.251747	-184.666775	333.528003	523.691462	-142.984637	338.999414	543.441660	-223.607569	254.301909	480.445068	-182.511983	538.006873	449.998107	-191.027815	431.396232	441.350929	-128.729879	454.322789	453.727573	-237.333875	192.124862	908.158440	-504.897823	257.015047	851.200353	-501.486606	284.421919	868.677763	-484.048409	283.884127	765.888415	-501.331230	334.463575	678.819017	-476.842727	334.869693	649.465494	-375.404619	289.241697	585.165583	-498.538087	260.615516	504.904385	-482.122788	193.595282	444.880842	-487.638999	276.423989	497.848176	-445.653757	121.492065	369.149613	-473.030664	137.044521	358.637984	-396.470740	42.640294	358.532872	-434.558779	271.677319	185.692513	-437.641293	172.064251	226.500780	-498.537721	-162.672439	859.556181	-312.338472	37.532199	86.461712	-514.458810	34.492462	82.488506	-114.123953	
3	0.0150	504.660250	1253.066104	-111.097976	508.623492	1255.810499	-478.431435	541.237977	1290.391735	-296.729308	472.879409	1170.729603	-293.607048	566.721093	993.727487	-71.530334	727.134782	846.298351	-122.285570	535.098995	987.633820	-539.269262	714.022653	843.215661	-480.739362	13.483987	1111.153957	-310.542001	158.772937	1102.730903	-448.836617	143.810948	1105.299030	-168.273858	199.079507	1062.131466	-427.133519	199.933412	1079.473261	-196.437097	43.122097	1154.332411	-268.190561	54.308279	1166.794495	-350.542319	115.160665	1036.503598	-122.592197	91.565536	1014.411228	-488.676203	198.429005	1016.101567	-125.849641	284.808353	1010.149715	-137.592645	359.375260	972.691214	-114.884439	292.596497	1032.789647	-166.898546	483.412671	891.310304	-148.779392	476.399911	869.755974	-260.831748	464.176041	781.525564	-130.102571	445.959759	696.524147	-147.382619	392.243707	627.424613	-140.057287	458.013265	691.200186	-184.675791	333.275399	523.284474	-143.177939	338.935737	543.410462	-223.626232	254.233946	480.379621	-182.504066	537.970610	450.071056	-191.034759	431.351949	441.364934	-128.722585	454.284156	453.763983	-237.343131	192.127432	908.157799	-504.898576	257.013635	851.186644	-501.447998	284.392327	868.663979	-484.016226	283.867356	765.874778	-501.312644	334.415174	678.806733	-476.843306	334.803408	649.420821	-375.417332	289.187945	585.143872	-498.536191	260.560945	504.880703	-482.128132	193.576405	444.835935	-487.642473	276.369728	497.812423	-445.652180	121.473086	369.120163	-473.015217	137.033329	358.603684	-396.465080	42.630234	358.483748	-434.549340	271.694305	185.702124	-437.651122	172.063865	226.467836	-498.537236	-162.720733	860.177833	-310.466961	37.538258	86.460381	-514.460997	34.493928	82.507375	-114.122954	
4	0.0200	504.061688	1253.627449	-110.076391	508.612942	1255.986370	-478.469858	541.394027	1290.286303	-296.739589	472.880108	1170.727976	-293.606979	566.271616	994.190890	-70.963473	727.166262	846.012269	-122.463109	535.134241	987.505353	-539.264860	713.960668	843.848923	-483.132997	13.248069	1111.515072	-310.088538	158.928751	1102.643037	-448.881917	143.747224	1104.967142	-168.053571	199.072436	1062.127774	-427.131381	199.982976	1079.492759	-196.495134	43.236796	1154.269455	-268.103459	55.210231	1166.354991	-351.025192	115.184356	1036.506441	-122.617994	91.558631	1014.446353	-488.667573	198.451716	1016.068988	-125.842402	285.072887	1010.824784	-136.870892	359.382363	972.632107	-114.886451	292.647170	1032.762292	-166.875283	484.022101	891.049360	-149.366288	476.376980	869.695904	-260.828072	464.785179	780.851200	-131.082845	444.886310	695.246804	-147.080393	392.402838	627.241304	-140.112932	458.037286	690.885599	-184.811563	333.108832	523.665545	-142.919560	338.732894	543.191717	-224.078107	253.686595	480.544350	-182.234933	537.911466	450.161861	-191.024678	431.664499	441.209410	-128.852125	454.353486	453.750834	-237.560206	192.117413	908.168335	-504.874605	257.117988	850.827800	-501.237538	284.345473	869.173695	-484.370370	283.845783	765.799124	-501.333050	334.551024	678.619339	-476.960820	334.736705	649.411014	-375.415904	289.147823	585.130932	-498.532535	260.810445	504.854030	-482.542611	193.469597	444.988548	-487.747095	276.124286	497.962477	-445.134598	121.489827	369.089425	-473.022040	137.050918	358.581382	-396.459344	42.654303	358.452340	-434.548806	271.713080	185.651223	-437.642353	172.085288	226.440881	-498.528857	-162.697725	860.249529	-310.146912	37.527835	86.462877	-514.451025	34.499122	82.489622	-114.128282	
5	0.0250	503.952143	1253.803439	-109.812213	508.222570	1255.904297	-477.395473	540.977563	1290.431235	-296.002679	472.862092	1170.855731	-293.596870	566.240458	994.381259	-70.817410	727.000815	845.951737	-122.076578	534.949866	987.851341	-539.065072	713.924364	843.375922	-481.779813	13.135690	1111.644793	-309.967756	158.945318	1102.434990	-448.922536	143.874573	1104.986972	-168.196008	199.100240	1062.093601	-426.954708	200.048203	1079.463225	-196.563277	43.268534	1154.333485	-268.082158	55.316459	1166.365278	-351.039420	115.303927	1036.655885	-122.680835	91.580327	1014.582270	-488.600816	198.115555	1016.559136	-125.350996	285.233220	1010.624528	-136.965295	358.989795	973.119917	-114.367175	292.725729	1032.712384	-166.993244	483.694357	891.261770	-149.101123	475.741233	870.403752	-259.857365	464.374986	781.311022	-130.658865	444.839640	695.792188	-147.031092	391.756396	627.715556	-139.545731	457.785594	691.009483	-184.642900	332.773863	523.806391	-142.967740	338.061765	543.870262	-223.860074	253.653084	480.460083	-182.302872	537.715010	450.610468	-190.740785	431.049861	441.783965	-128.314862	454.172474	454.338344	-237.550231	191.970280	908.525113	-504.556052	257.165044	850.984559	-501.089342	284.376842	869.264344	-484.192549	283.870357	765.955833	-501.246628	334.209628	679.052839	-476.637389	334.230474	650.140196	-374.886221	288.974295	585.445455	-498.303110	260.423660	505.317735	-481.997750	193.601477	444.999634	-487.790214	276.142907	498.113732	-444.884563	121.490608	369.118841	-472.956416	137.063162	358.707979	-396.438238	42.718806	358.418646	-434.542106	271.625969	185.595589	-437.508148	172.090661	226.458959	-498.521906	-162.729238	859.538986	-312.179979	37.417247	86.414015	-514.392591	34.078302	83.013020	-114.130949	
